<svg xmlns="http://www.w3.org/2000/svg" viewBox="0 0 164.64 107.37"><defs><style>.cls-1{fill:#ea5096;stroke:#b51736;stroke-miterlimit:10;}.cls-2{font-size:32.08px;fill:#1d1d1b;font-family:Arial-ItalicMT, Arial;font-style:italic;letter-spacing:0.21em;}</style></defs><g id="Calque_2" data-name="Calque 2"><g id="Calque_1-2" data-name="Calque 1"><polygon class="cls-1" points="8.11 15.25 18.35 40.23 1.15 41.05 15.08 54.97 11.8 68.08 22.86 80.36 19.99 91.42 39.65 106.98 24.9 89.78 28.59 76.68 17.94 68.49 21.63 48.01 12.62 44.33 21.22 38.59 8.11 15.25"/><polygon class="cls-1" points="156.35 0.51 145.29 1.33 152.66 12.38 141.2 11.16 156.35 37.37 140.79 35.32 147.34 52.11 138.74 62.34 153.48 83.64 123.18 89.37 159.22 85.28 143.66 63.16 154.3 51.7 146.11 41.05 163.72 41.05 147.34 15.66 160.44 16.07 153.07 7.06 163.31 4.61 156.35 0.51"/><polygon class="cls-1" points="78.61 0.86 59.37 9.46 80.25 16.83 67.96 20.1 89.67 28.7 71.24 36.07 119.56 49.59 83.93 36.07 99.5 27.47 81.07 21.33 90.49 16.83 73.7 10.27 83.11 5.77 78.61 0.86"/><text class="cls-2" transform="translate(28.45 70.53)">éclair</text></g></g></svg>